<?xml version="1.0" encoding="UTF-8"?>
<svg xmlns="http://www.w3.org/2000/svg" xmlns:xlink="http://www.w3.org/1999/xlink" width="1500px" height="725px" viewBox="0 0 1500 725" version="1.1">
<g id="surface1">
<path style=" stroke:none;fill-rule:nonzero;fill:rgb(100%,98.039216%,44.705882%);fill-opacity:1;" d="M 918.207031 42.964844 C 882.34375 120.121094 889.125 168.492188 938.550781 188.082031 C 1012.695312 217.46875 1188.984375 229.222656 1262.675781 292.964844 C 1336.363281 356.707031 1561.046875 307.429688 1599.472656 198.027344 C 1637.898438 88.625 1707.085938 -80 1342.261719 -80 C 1099.039062 -80 957.691406 -39.011719 918.210938 42.964844 Z M 918.207031 42.964844 "/>
<path style=" stroke:none;fill-rule:nonzero;fill:rgb(83.921569%,94.901961%,100%);fill-opacity:1;" d="M 390.441406 195.300781 C 414.746094 411.335938 511.933594 546.777344 681.996094 601.632812 C 937.097656 683.910156 1449.714844 716.820312 1759.09375 895.300781 C 2068.464844 1073.78125 2617.917969 935.804688 2548.652344 629.476562 C 2479.390625 323.148438 2400.515625 -149 1379 -149 C 697.984375 -149 368.472656 -34.234375 390.445312 195.300781 Z M 390.441406 195.300781 "/>
<path style=" stroke:none;fill-rule:nonzero;fill:rgb(78.039216%,88.235294%,95.294118%);fill-opacity:1;" d="M 430.023438 182.605469 C 441.417969 387.066406 526.121094 515.253906 684.125 567.167969 C 921.136719 645.039062 1404.523438 676.1875 1687.738281 845.105469 C 1970.941406 1014.023438 2498.375 883.441406 2449.285156 593.523438 C 2400.195312 303.605469 2350.917969 -143.25 1384.128906 -143.25 C 739.597656 -143.25 421.566406 -34.632812 430.027344 182.605469 Z M 430.023438 182.605469 "/>
<path style=" stroke:none;fill-rule:nonzero;fill:rgb(72.156863%,81.176471%,90.196078%);fill-opacity:1;" d="M 470.609375 169.914062 C 470.890625 362.800781 544.238281 483.730469 690.640625 532.707031 C 910.25 606.167969 1364.683594 635.554688 1623.21875 794.914062 C 1881.746094 954.269531 2386.011719 831.074219 2354.539062 557.570312 C 2323.066406 284.0625 2299.453125 -137.5 1387.386719 -137.5 C 779.339844 -137.5 473.75 -35.03125 470.613281 169.914062 Z M 470.609375 169.914062 "/>
<path style=" stroke:none;fill-rule:nonzero;fill:rgb(66.27451%,74.509804%,85.490196%);fill-opacity:1;" d="M 512.113281 157.21875 C 502.933594 338.53125 565.957031 452.207031 701.179688 498.242188 C 904.011719 567.296875 1329.742188 594.921875 1564.960938 744.71875 C 1800.175781 894.511719 2280.214844 778.710938 2264.023438 521.613281 C 2247.832031 264.519531 2246.28125 -131.75 1388.9375 -131.75 C 817.371094 -131.75 525.101562 -35.429688 512.117188 157.21875 Z M 512.113281 157.21875 "/>
<path style=" stroke:none;fill-rule:nonzero;fill:rgb(60.392157%,67.843137%,80.784314%);fill-opacity:1;" d="M 554.460938 144.523438 C 537.339844 314.265625 590.996094 420.683594 715.417969 463.78125 C 902.058594 528.429688 1299.316406 554.285156 1512.476562 694.523438 C 1725.628906 834.757812 2180.472656 726.347656 2177.410156 485.660156 C 2174.34375 244.976562 2191.53125 -126 1388.914062 -126 C 853.828125 -126 575.683594 -35.828125 554.464844 144.523438 Z M 554.460938 144.523438 "/>
<path style=" stroke:none;fill-rule:nonzero;fill:rgb(54.509804%,60.784314%,75.686275%);fill-opacity:1;" d="M 597.597656 131.828125 C 573.945312 289.996094 619.117188 389.160156 733.101562 429.320312 C 904.085938 489.558594 1273.082031 513.652344 1465.347656 644.328125 C 1657.609375 775 2086.359375 673.980469 2094.417969 449.707031 C 2102.480469 225.429688 2135.316406 -120.25 1387.425781 -120.25 C 888.824219 -120.25 625.554688 -36.226562 597.601562 131.828125 Z M 597.597656 131.828125 "/>
<path style=" stroke:none;fill-rule:nonzero;fill:rgb(49.019608%,54.117647%,70.980392%);fill-opacity:1;" d="M 641.46875 119.132812 C 612.605469 265.726562 650.121094 357.636719 754.003906 394.855469 C 909.832031 450.6875 1250.769531 473.019531 1423.234375 594.132812 C 1595.691406 715.246094 1997.503906 621.617188 2014.816406 413.753906 C 2032.128906 205.886719 2077.734375 -114.5 1384.566406 -114.5 C 922.449219 -114.5 674.753906 -36.625 641.472656 119.132812 Z M 641.46875 119.132812 "/>
<path style=" stroke:none;fill-rule:nonzero;fill:rgb(43.137255%,47.45098%,66.27451%);fill-opacity:1;" d="M 686.035156 106.4375 C 653.203125 241.460938 683.839844 326.113281 777.9375 360.394531 C 919.085938 411.816406 1232.15625 432.386719 1385.84375 543.9375 C 1539.527344 655.488281 1913.605469 569.253906 1938.40625 377.796875 C 1963.207031 186.34375 2018.863281 -108.75 1380.417969 -108.75 C 954.78125 -108.75 723.328125 -37.023438 686.035156 106.4375 Z M 686.035156 106.4375 "/>
<path style=" stroke:none;fill-rule:nonzero;fill:rgb(37.254902%,40.392157%,61.176471%);fill-opacity:1;" d="M 731.253906 93.742188 C 695.636719 217.191406 720.136719 294.589844 804.746094 325.933594 C 931.664062 372.949219 1217.046875 391.753906 1352.933594 493.742188 C 1488.816406 595.730469 1834.410156 516.886719 1865.027344 341.84375 C 1895.644531 166.800781 1958.769531 -103 1375.046875 -103 C 985.894531 -103 771.300781 -37.421875 731.257812 93.742188 Z M 731.253906 93.742188 "/>
<path style=" stroke:none;fill-rule:nonzero;fill:rgb(31.372549%,33.72549%,56.470588%);fill-opacity:1;" d="M 777.105469 81.050781 C 739.828125 192.925781 758.898438 263.0625 834.304688 291.46875 C 947.417969 334.078125 1205.289062 351.121094 1324.304688 443.550781 C 1443.320312 535.976562 1759.707031 464.523438 1794.539062 305.890625 C 1829.375 147.257812 1897.503906 -97.25 1368.503906 -97.25 C 1015.835938 -97.25 818.707031 -37.816406 777.105469 81.050781 Z M 777.105469 81.050781 "/>
<path style=" stroke:none;fill-rule:nonzero;fill:rgb(25.490196%,27.058824%,51.764706%);fill-opacity:1;" d="M 823.558594 68.355469 C 785.707031 168.65625 800.027344 231.539062 866.511719 257.007812 C 966.234375 295.207031 1196.753906 310.488281 1299.800781 393.355469 C 1402.84375 476.21875 1689.328125 412.160156 1726.839844 269.9375 C 1764.351562 127.710938 1835.113281 -91.5 1360.839844 -91.5 C 1044.652344 -91.5 865.5625 -38.214844 823.558594 68.355469 Z M 823.558594 68.355469 "/>
<path style=" stroke:none;fill-rule:nonzero;fill:rgb(19.607843%,20%,46.666667%);fill-opacity:1;" d="M 870.597656 55.660156 C 833.226562 144.386719 843.457031 200.015625 901.277344 222.542969 C 988.015625 256.335938 1191.34375 269.855469 1279.289062 343.160156 C 1367.230469 416.464844 1623.140625 359.792969 1661.835938 233.980469 C 1700.535156 108.167969 1771.632812 -85.75 1352.082031 -85.75 C 1072.378906 -85.75 911.886719 -38.613281 870.597656 55.660156 Z M 870.597656 55.660156 "/>
</g>
</svg>
